<svg t="1706241580001" class="icon" viewBox="0 0 1024 1024" version="1.1" xmlns="http://www.w3.org/2000/svg"
     p-id="17852" xmlns:xlink="http://www.w3.org/1999/xlink" width="200" height="200">
  <path
    d="M512 42.666667C251.733333 42.666667 42.666667 251.733333 42.666667 512s209.066667 469.333333 469.333333 469.333333 469.333333-209.066667 469.333333-469.333333S772.266667 42.666667 512 42.666667z m0 853.333333C298.666667 896 128 725.333333 128 512S298.666667 128 512 128s384 170.666667 384 384-170.666667 384-384 384z"
    ></path>
  <path
    d="M512 469.333333c-25.6 0-42.666667 17.066667-42.666667 42.666667v170.666667c0 25.6 17.066667 42.666667 42.666667 42.666666s42.666667-17.066667 42.666667-42.666666V512c0-25.6-17.066667-42.666667-42.666667-42.666667zM482.133333 311.466667c-8.533333 8.533333-12.8 17.066667-12.8 29.866666s4.266667 21.333333 12.8 29.866667c8.533333 8.533333 17.066667 12.8 29.866667 12.8s21.333333-4.266667 29.866667-12.8c8.533333-8.533333 12.8-17.066667 12.8-29.866667s-4.266667-21.333333-12.8-29.866666c-17.066667-17.066667-42.666667-17.066667-59.733334 0z"
    ></path>
</svg>