<svg width="1024" height="1024" xmlns="http://www.w3.org/2000/svg" p-id="5587" version="1.1" class="icon" t="1705207387519">

 <g>
  <title>background</title>
  <rect fill="none" id="canvas_background" height="628" width="1205" y="-1" x="-1"/>
 </g>
 <g>
  <title>Layer 1</title>
  <path stroke="null" id="svg_1" fill="#000000" p-id="5588" d="m852.647944,354.42544c-12.764051,-12.764051 -25.557378,-29.802303 -42.59563,-38.321429l-242.721902,-144.766591c-12.764051,-8.519126 -34.076504,-12.764051 -55.359681,-12.764051s-38.321429,4.244925 -59.604607,17.038252l-234.202776,136.27674l-4.244925,4.244925l-8.519126,4.244925a129.631237,129.631237 0 0 0 -34.076504,34.076504a131.065729,131.065729 0 0 0 -12.764051,55.359681l0,349.167064c0,29.802303 12.764051,55.359681 34.076504,76.642859c21.283177,17.038252 46.840555,29.802303 76.642859,29.802303l485.443805,0c29.802303,0 55.359681,-12.764051 76.642859,-29.802303c21.283177,-21.283177 34.076504,-46.840555 34.076504,-76.642859l0,-349.167064c0,-17.038252 -4.244925,-38.321429 -12.764051,-55.359681l-0.029275,-0.029275zm-68.094457,413.075147a9.163184,9.163184 0 0 1 -8.519126,8.519126c-4.244925,4.244925 -8.519126,4.244925 -12.764051,8.519126c-4.244925,0 -8.519126,4.244925 -12.764051,4.244925l-481.198879,0c-4.244925,0 -8.519126,0 -12.764051,-4.244925c-4.244925,0 -8.519126,-4.244925 -12.764051,-8.519126s-4.244925,-8.519126 -8.519126,-8.519126c0,-4.244925 -4.244925,-8.519126 -4.244925,-12.764051l0,-344.951414c0,-4.244925 0,-8.519126 4.244925,-17.038252c8.519126,-4.244925 12.764051,-8.519126 17.038252,-8.519126l242.721902,-144.766591c4.244925,-4.244925 12.764051,-4.244925 17.038252,-4.244925s12.764051,0 17.038252,4.244925l242.721902,144.766591l12.764051,12.764051c4.244925,4.244925 4.244925,8.519126 4.244925,17.038252l0,349.167064l-4.244925,4.244925l-0.029275,0.058551z"/>
 </g>
</svg>