<svg t="1706018693530" class="icon" viewBox="0 0 1024 1024" version="1.1" xmlns="http://www.w3.org/2000/svg" p-id="4434"
     xmlns:xlink="http://www.w3.org/1999/xlink" width="200" height="200">
  <path
    d="M855.75751 0H168.438062A170.229956 170.229956 0 0 0 0 168.182077v687.575433A170.229956 170.229956 0 0 0 168.438062 1023.939588h687.319448a172.789805 172.789805 0 0 0 122.104796-46.077282 172.533821 172.533821 0 0 0 46.077282-122.104796V168.182077A170.485941 170.485941 0 0 0 855.75751 0zM100.34608 848.589933V161.0145a68.091983 68.091983 0 0 1 68.091982-60.924405h687.319448a64.764179 64.764179 0 0 1 48.893116 22.270686 55.292738 55.292738 0 0 1 12.03129 45.821296v687.575433a68.091983 68.091983 0 0 1-68.091983 60.924406H161.270485a68.091983 68.091983 0 0 1-60.924405-68.091983z"
    fill="#222222" p-id="4435"></path>
  <path
    d="M346.347565 772.818404a53.756828 53.756828 0 0 0 25.59849 6.143637 44.797357 44.797357 0 0 0 25.59849-7.167577l358.378856-215.027313a51.196979 51.196979 0 0 0 0-82.683122l-358.378856-215.283298a53.756828 53.756828 0 0 0-51.19698 0 43.261448 43.261448 0 0 0-20.478791 38.141749v436.966219a44.285387 44.285387 0 0 0 20.478791 38.909705z m69.115923-129.272373V380.393557L634.586559 511.969794z"
    fill="#222222" p-id="4436"></path>
</svg>